<svg width="488" height="174" viewBox="0 0 488 174" fill="none" xmlns="http://www.w3.org/2000/svg">
<g clip-path="url(#clip0_36_296)">
<path d="M0 64.5234L21.7291 99.9631L30.4208 91.9324L6.69981 57.8894L0 64.5234Z" fill="url(#paint0_linear_36_296)"/>
<path d="M323.402 36.5907L322.497 41.3043L332.818 37.9873L331.55 32.2262L323.402 36.5907Z" fill="#0071B9"/>
<path d="M262.56 4.64259L229.061 41.6535L238.839 39.0348L270.709 0.627258L262.56 4.64259Z" fill="url(#paint1_linear_36_296)"/>
<path d="M442.007 55.2707L450.155 51.0808L447.801 70.9829L442.007 55.2707Z" fill="#1D2C5E"/>
<path d="M390.762 68.015L398.186 69.5862L407.421 65.2217L399.273 62.2539L390.762 68.015Z" fill="#1D2C5E"/>
<path d="M138.704 47.0654L139.791 69.9354L150.112 66.0946L147.034 42.701L138.704 47.0654Z" fill="url(#paint2_linear_36_296)"/>
<path d="M398.729 40.0823L390.581 44.4468L390.762 68.015L399.092 63.9997L401.627 52.4774L398.729 40.0823Z" fill="url(#paint3_linear_36_296)"/>
<path d="M397.643 69.5862L388.589 147.1L403.075 144.306L405.792 65.3963L397.643 69.5862Z" fill="#312370"/>
<path d="M415.208 150.766L415.57 161.241L443.274 169.795L451.604 165.605L424.261 145.179L396.738 142.91L388.589 147.1L415.208 150.766Z" fill="#21386E"/>
<path d="M312.356 132.26L319.056 128.769L323.583 136.45L329.921 133.133L331.188 143.259L371.568 150.242L379.535 145.878L323.945 113.231L284.47 119.691L276.865 126.848L312.356 132.26Z" fill="#21386E"/>
<path d="M299.5 36.9398L291.351 41.3043L276.865 126.848L285.014 122.658L298.957 74.649L299.5 36.9398Z" fill="url(#paint4_linear_36_296)"/>
<path d="M235.037 48.4621L228.518 51.7791L229.061 53.8741L244.453 44.4468L237.753 37.4636L229.061 41.6535L235.037 48.4621Z" fill="#1D2C5E"/>
<path d="M252.601 149.544L186.871 118.119L195.019 112.009L260.75 145.179L252.601 149.544Z" fill="#21386E"/>
<path d="M193.027 32.5753L183.068 50.7316L193.57 47.7638L201.175 28.2108L193.027 32.5753Z" fill="#1D2C5E"/>
<path d="M102.489 107.819L94.1597 113.406C94.1597 113.406 95.9704 122.484 98.3244 128.769C100.678 135.054 106.111 140.116 106.111 140.116C109.732 143.433 113.897 145.878 118.786 147.274C128.021 149.893 138.523 148.147 147.577 142.561C149.931 141.164 153.19 138.894 155.182 136.974C146.31 142.211 102.489 107.819 102.489 107.819Z" fill="url(#paint5_linear_36_296)"/>
<path d="M147.577 68.1896L155.182 149.718L186.689 145.354L195.019 141.164L156.088 63.3014L148.12 65.9201L139.791 69.9354L147.577 68.1896Z" fill="#1D2C5E"/>
<path d="M29.8774 96.4715L65.0062 173.112L98.3242 162.812L106.473 157.574L37.3015 87.7425L28.6099 92.8053L21.729 99.9631L29.8774 96.4715Z" fill="url(#paint6_linear_36_296)"/>
<path d="M377.363 132.609L377.906 136.45C380.803 136.101 383.7 135.752 386.416 134.879C389.495 133.832 396.013 131.038 398.367 128.943C397.281 129.292 382.071 133.133 377.363 132.609Z" fill="#1D2C5E"/>
<path d="M259.482 113.057L260.749 119.167C267.449 118.119 273.244 115.85 279.038 112.533C282.66 110.438 286.462 107.47 287.73 106.597C286.824 107.121 259.482 113.057 259.482 113.057Z" fill="#1D2C5E"/>
<path d="M74.1488 165.804L71.6137 160.218L38.2958 88.6398L37.5714 87.2432L36.1228 87.9415L35.0364 88.4653L29.0609 91.2586C28.1555 89.8619 26.7069 87.4178 25.8015 85.8466L12.4019 64.0241L8.96143 58.263L14.7559 54.7714C20.1881 51.4544 26.3447 48.3119 33.2256 45.5187C46.6252 40.1067 60.206 37.1389 72.7002 37.1389C76.865 37.1389 80.8486 37.488 84.4701 38.0117C90.6267 38.7101 96.4212 40.6304 101.129 43.7729C108.191 47.6136 113.804 53.5493 116.883 60.5325C119.418 66.2937 119.961 73.1023 118.331 80.0855L117.426 84.2754L121.048 81.8313C123.402 80.0855 125.937 78.6888 128.653 77.6413C133.361 75.721 138.25 74.6735 143.139 74.6735C147.847 74.6735 152.193 75.5464 156.176 77.2922L158.711 78.3397L158.53 75.5464L157.444 63.8495L157.263 61.9292L155.452 62.4529L149.839 63.8495L148.933 43.9475L190.219 31.2031L189.856 46.7407L192.935 47.439L201.989 30.854L228.969 53.8985L230.055 54.946L231.142 53.8985C234.763 50.5815 239.29 47.7882 244.179 45.8678L246.171 44.9949L244.722 43.2491L239.833 37.488L270.797 3.09582L287.094 26.4895L262.287 39.4084L256.855 42.2017L263.192 42.3762C274.962 42.5508 285.465 47.439 292.527 55.8189L295.062 58.9613L296.691 60.8817L293.975 63.675L292.164 65.5953L286.008 72.0548L284.921 73.2768L286.189 74.3243L291.983 79.3871L294.156 81.3075L294.699 78.5142L296.872 65.2462L297.416 61.7546L297.959 58.263L301.218 38.5355H332.001L332.182 37.1389L332.725 33.8218H359.525L366.043 73.2768L366.406 75.8955L368.578 74.3243C371.295 72.4039 374.192 71.0073 377.27 69.7852C381.435 68.214 385.6 67.5157 389.945 67.5157C395.016 67.5157 399.905 68.5632 404.069 70.8327C404.251 70.8327 404.251 71.0073 404.613 71.1819L406.604 71.8802L406.786 69.7852L407.329 65.4208L407.51 64.0241L406.061 63.675L400.629 62.4529L400.448 41.8525L441.914 50.5815L444.993 65.4208H448.252L451.511 52.6764L486.097 60.7071L450.606 163.535L425.436 155.853L425.255 146.426V145.029L423.807 144.854L398.637 141.363L400.086 128.968L400.448 126L397.732 127.397C396.464 128.095 395.197 128.619 393.929 128.968C389.764 130.539 385.6 131.237 381.435 131.237C380.167 131.237 379.081 131.237 377.813 131.063L375.64 130.888L376.003 132.983L377.813 143.807L341.055 137.522L339.063 121.461L338.52 116.223L335.985 120.763L331.82 128.619L324.034 114.827L321.68 110.637L320.956 115.351L319.326 126L287.094 121.112L289.629 106.447L290.173 103.13L287.094 104.876C281.843 107.844 275.687 110.288 268.625 111.859C266.089 112.383 263.554 112.906 260.838 113.081L259.39 113.256V142.585L196.013 112.383L193.659 111.335V139.792L165.23 143.807L163.963 131.412L163.6 128.095L161.065 130.364C157.263 133.856 153.098 136.649 148.571 138.57C143.863 140.49 138.974 141.537 134.266 141.537C129.377 141.537 124.85 140.49 120.685 138.744C113.08 135.253 107.467 128.793 105.113 120.588C104.026 116.747 103.664 112.732 104.207 108.542L104.751 104.177L101.491 107.32C99.1373 109.415 96.6022 111.51 93.8861 113.43L92.9807 114.128L93.3429 115.176L102.94 150.441L104.57 156.726L98.2319 158.646L80.3054 164.233L74.1488 165.804ZM82.1162 71.0073C81.2108 71.0073 80.3054 71.0073 79.2189 71.1819L77.9514 71.3565L76.1406 71.7056L76.6839 73.4514L77.046 74.4989L82.1162 90.7348L82.6594 92.306L83.3837 94.5756L85.1945 93.0043L86.462 91.9569C91.5321 87.5924 93.1618 83.2279 92.0753 77.6413C91.351 74.3243 88.816 72.7531 87.1863 72.0548C86.0998 71.3565 84.108 71.0073 82.1162 71.0073ZM220.096 71.531L216.837 74.4989L208.326 82.355L206.515 84.1008L208.869 84.9737L217.923 88.2907L220.639 89.3382L220.096 86.5449C219.372 82.8787 219.191 79.2125 219.553 75.721L220.096 71.531ZM257.036 62.4529C253.595 62.4529 250.155 63.8495 247.801 66.4682C244.179 70.309 243.455 76.0701 245.99 80.6092L246.714 81.8313L247.801 83.7516L249.43 82.0058L250.517 80.9584L263.011 67.3411L263.917 66.2937L265.546 64.5479L263.373 63.675L261.925 63.1512C260.114 62.8021 258.665 62.4529 257.036 62.4529Z" fill="#FFCB05"/>
<path d="M275.96 82.6797L275.598 83.0297C275.779 83.0297 275.96 82.8547 275.96 82.6797Z" fill="#7D7F68"/>
<path d="M286.824 73.2524L292.981 66.793L290.808 68.8879V68.7133L288.997 70.6337L282.841 76.9186L288.635 81.9814L289.722 75.6965L292.619 78.1406L286.824 73.2524Z" fill="#7D7F68"/>
<path d="M286.824 73.2524L292.619 78.1406L294.792 64.8726L292.981 66.793L286.824 73.2524Z" fill="#7D7F68"/>
<path d="M243.909 89.1391C244.453 89.6629 243.909 89.3137 244.453 89.6629L248.255 87.0442C247.712 86.695 247.169 86.1713 246.626 85.8221C241.193 80.9339 242.642 70.11 246.082 64.1743C236.666 71.5066 237.21 82.6797 243.909 89.1391Z" fill="#FFCB05"/>
<path d="M289.722 95.2494C283.384 100.312 276.322 103.455 266.906 105.724C264.914 106.248 262.741 106.597 260.931 106.597C245.901 107.994 233.407 101.36 228.699 90.7104C228.156 89.4883 227.613 88.0917 227.25 86.695C225.078 77.6169 226.888 69.5862 231.596 63.1268C232.14 62.4285 232.502 61.9047 233.045 61.381C232.864 61.5556 232.502 61.7301 232.321 61.9047C230.51 63.4759 228.88 65.0472 227.613 66.9675C222.905 73.2524 221.094 81.4576 223.267 90.5358C223.629 91.9324 223.991 93.3291 224.715 94.5511C229.423 105.375 242.099 112.009 256.947 110.612C258.939 110.438 260.931 110.089 263.104 109.565C272.519 107.295 279.762 104.153 285.919 99.0902C287.368 97.8681 288.997 96.4715 290.446 95.0749L290.265 94.9003C289.903 95.0749 289.722 95.0749 289.722 95.2494Z" fill="#FFCB05"/>
<path d="M184.154 67.8404L200.813 45.1451L200.089 44.6213L183.973 66.4438L184.154 67.8404Z" fill="#FFCB05"/>
<path d="M294.792 64.8726L292.619 78.1406L289.722 75.6965L288.635 81.9814L282.841 76.9186L288.997 70.6337L290.808 68.7133V68.8879L292.981 66.793L294.792 64.8726Z" fill="#FFCB05"/>
<path d="M274.149 27.5125L279.944 25.0684L269.26 11.8004L265.82 16.6886L274.149 27.5125Z" fill="#FFCB05"/>
<path d="M111.905 60.3335C84.7436 28.56 36.0342 45.6688 18.6509 60.5081L19.3752 61.7301C23.3589 59.4606 27.7047 57.5402 32.0505 55.6199C49.4338 48.4621 66.0928 46.3671 79.3114 48.6367C84.0193 49.1604 88.9084 50.557 93.2542 53.3503C99.2297 56.6673 103.757 61.2064 106.473 67.1421C111.181 77.6169 107.016 91.5833 95.9704 103.106C109.913 90.7104 119.51 78.839 111.905 60.3335Z" fill="#FFCB05"/>
<path d="M167.133 97.3444C166.952 96.8207 166.952 96.1224 166.771 95.5986C165.323 90.3612 162.063 86.1713 157.717 83.378C150.836 78.839 141.058 77.9661 131.461 81.8068C126.391 83.9018 122.045 87.2188 118.424 91.0595C121.14 88.79 124.218 87.0442 127.478 85.6476C137.075 81.6322 146.853 82.6797 153.734 87.2188C158.079 90.0121 161.339 94.202 162.787 99.4394C162.969 99.9631 163.15 100.661 163.15 101.185C163.512 103.28 163.693 105.2 163.693 107.295C163.512 113.406 161.158 119.516 157.355 124.753C156.812 125.626 156.088 126.325 155.363 127.198C157.536 125.277 159.528 123.357 161.158 121.087C165.141 115.85 167.314 109.74 167.677 103.629C167.677 101.534 167.495 99.4394 167.133 97.3444Z" fill="#FFCB05"/>
<path d="M140.515 89.6629C140.515 89.6629 144.499 85.8221 144.318 85.8221C139.428 85.6476 137.256 90.1866 137.074 90.5358C138.161 90.0121 139.247 89.8375 140.515 89.6629Z" fill="#FFCB05"/>
<path d="M149.75 95.0749C149.931 95.7732 150.112 96.2969 150.112 96.9953C150.112 98.0427 149.931 98.9156 149.388 99.7885C150.112 99.4394 155.906 96.6461 153.734 91.0595C153.915 91.4087 149.569 95.0749 149.75 95.0749Z" fill="#FFCB05"/>
<path d="M127.296 98.3919C127.296 96.1223 131.461 90.3612 132.729 88.4408C126.21 92.4562 123.313 97.8681 123.313 102.058C123.313 109.39 130.013 115.326 137.98 115.326C141.783 115.326 148.663 113.406 153.19 106.423C150.836 107.994 144.861 111.485 141.601 111.485C133.634 111.485 127.296 105.724 127.296 98.3919Z" fill="#FFCB05"/>
<path d="M183.249 105.026L183.43 134.53L188.319 134.879L187.233 101.185L183.249 105.026Z" fill="#FFCB05"/>
<path d="M155.363 48.6367V51.2554L178.541 44.6213L180.171 73.0778L184.154 67.8404L183.249 39.3839L155.363 48.6367Z" fill="#FFCB05"/>
<path d="M225.078 58.7623L203.53 39.5585L200.813 45.1451L220.008 62.4285L225.078 58.7623Z" fill="#FFCB05"/>
<path d="M221.818 94.5511L196.287 86.3459L192.665 90.1866L218.016 99.9631C220.913 105.2 225.259 109.74 230.691 112.882C235.942 116.024 242.099 117.945 248.436 118.469V130.515L252.42 132.435L253.688 114.279L221.818 94.5511Z" fill="#FFCB05"/>
<path d="M262.741 91.2341C269.079 89.8375 272.519 86.695 275.779 83.2034C273.425 85.1238 261.836 87.5679 259.844 88.0917L256.042 92.107C257.671 92.107 260.568 91.7579 262.741 91.2341Z" fill="#FFCB05"/>
<path d="M251.334 49.335C239.745 50.7316 233.769 60.1589 232.864 61.2064C237.21 57.7148 242.461 55.0961 248.436 53.8741C262.741 50.557 275.236 54.747 283.022 63.9997L287.911 60.1589C280.125 51.0808 265.639 46.018 251.334 49.335Z" fill="#FFCB05"/>
<path d="M290.084 94.9003C291.532 93.8528 293.886 92.6308 295.335 91.2341L279.944 77.9661C278.676 79.3627 277.771 81.6322 276.322 82.6797L290.084 94.9003Z" fill="#FFCB05"/>
<path d="M369.214 130.515C353.098 117.596 354.004 90.1866 361.971 81.4576L354.909 38.3365L339.337 40.2568L338.612 44.0976H350.382L356.72 83.2034C348.753 91.9324 344.95 103.629 347.485 114.453C349.477 122.833 354.909 129.467 362.514 133.308C363.239 133.657 364.144 134.006 364.868 134.355L365.049 134.879L369.757 135.577C369.576 135.752 370.12 130.864 369.214 130.515Z" fill="#FFCB05"/>
<path d="M307.105 44.6213L306.381 48.4621H324.126L329.377 76.2203L333.361 72.3795L329.196 43.0501L307.105 44.6213Z" fill="#FFCB05"/>
<path d="M337.526 98.3919L331.731 112.707L333.18 116.548L341.328 94.7257L337.526 98.3919Z" fill="#FFCB05"/>
<path d="M320.505 89.4883L316.521 93.3291L312.175 119.167L316.34 120.563L320.505 89.4883Z" fill="#FFCB05"/>
<path d="M400.359 81.1085C402.713 82.6797 404.705 84.7747 406.154 87.2188C407.421 89.1391 408.145 91.0595 408.87 93.5036C410.862 101.36 408.508 109.74 403.437 116.374C402.894 117.072 402.351 117.77 401.808 118.294C403.8 116.548 429.15 98.5664 404.524 74.9982C377.362 66.4438 367.041 83.378 366.136 84.6001C369.033 82.3305 372.292 80.2356 375.914 79.0135C384.968 75.5219 394.021 76.744 400.359 81.1085Z" fill="#FFCB05"/>
<path d="M386.779 82.8543C386.779 83.0289 390.762 79.0135 390.762 79.0135C385.873 79.1881 383.519 81.4577 383.881 82.5051C383.519 82.8543 383.338 83.378 383.157 83.7272C384.062 83.2035 386.054 82.8543 386.779 82.8543Z" fill="#FFCB05"/>
<path d="M395.832 88.79C396.013 89.4883 396.013 90.012 396.013 90.7104C396.013 91.5833 395.651 92.4562 395.289 93.1545C396.013 92.8053 401.808 91.0595 399.635 84.7747C399.816 85.1238 395.651 88.79 395.832 88.79Z" fill="#FFCB05"/>
<path d="M382.976 108.518C388.408 108.692 394.565 105.55 398.911 99.7885C387.865 102.058 376.095 84.0763 377.182 82.3306C373.017 85.2984 369.214 90.885 369.033 94.9003C368.671 102.233 375.009 108.168 382.976 108.518Z" fill="#FFCB05"/>
<path d="M443.999 155.13L446.534 156.701L478.403 64.5234L454.501 59.286L454.32 64.698L473.514 68.7133L443.999 155.13Z" fill="#FFCB05"/>
<path d="M406.154 49.335L406.335 54.5724L431.685 59.4606L441.463 104.153L445.447 100.312L436.031 55.0961L406.154 49.335Z" fill="#FFCB05"/>
<path d="M425.71 100.312L418.648 138.371L422.632 139.593L429.694 96.4715L425.71 100.312Z" fill="#FFCB05"/>
<path d="M96.6944 152.337L84.9244 110.787L80.5786 113.755L91.6243 153.384L96.6944 152.337Z" fill="#FFCB05"/>
<path d="M93.6165 90.0121C90.9004 92.8053 84.7438 98.2173 81.3033 100.312L79.1304 93.8528L74.6035 79.5373L71.7063 69.9354L68.8091 73.427L71.7063 83.0289L76.2332 97.1698L78.4061 103.629C83.2952 101.011 90.1761 95.424 93.6165 90.0121Z" fill="#FFCB05"/>
<path d="M261.655 65.3963C257.852 63.9997 252.601 64.3488 249.704 67.4913C248.98 68.1896 247.712 69.9354 247.35 70.8083C250.066 68.7133 255.136 68.1896 258.214 69.4117L261.655 65.3963Z" fill="#7D7F68"/>
<path d="M90.3571 78.3152C89.9949 76.2203 87.822 74.4745 86.7356 73.9507C84.9248 73.0778 81.4844 72.9032 79.1304 73.427C79.4925 74.8236 80.0357 76.5694 80.2168 77.2677C81.1222 77.4423 82.7519 77.6169 83.6573 77.9661C84.7437 78.4898 86.5545 79.5373 86.9166 81.8068C87.4599 84.6001 87.2788 87.3934 86.0113 89.4883C89.4517 86.3459 91.0814 82.8543 90.3571 78.3152Z" fill="#7D7F68"/>
<path d="M96.2402 78.1651C94.6105 69.7853 83.2027 65.0716 71.7949 71.0073L74.6921 80.6092L79.219 94.9247L81.392 101.384C89.9025 96.3214 98.4131 89.8619 96.2402 78.1651ZM85.0135 91.2586C83.7459 87.4178 81.0298 79.038 81.0298 79.038C81.0298 79.038 80.4866 77.2922 79.7623 75.1972C82.1163 74.8481 84.4702 75.0226 86.281 75.8955C87.3675 76.4193 89.1782 77.4668 89.5404 79.7363C90.6268 84.2754 88.9972 87.767 85.0135 91.2586Z" fill="#3C5AA6"/>
<path d="M267.538 64.897C261.2 59.3105 251.422 59.6596 245.628 65.7699C239.833 71.8802 240.196 81.3075 246.533 86.8941C247.076 87.4178 247.62 87.767 248.163 88.1161L268.624 65.7699C268.262 65.5953 267.9 65.2462 267.538 64.897ZM248.344 80.6092C246.352 77.1176 246.714 72.5785 249.793 69.4361C252.69 66.4682 257.036 65.5953 260.838 66.992L248.344 80.6092Z" fill="#3567B0"/>
<path d="M294.792 62.4285L283.565 72.9032L294.249 82.156L294.792 62.4285Z" fill="#1E2D5F"/>
<path d="M399.635 84.9492C399.816 85.6476 399.816 86.3459 399.816 87.0442C399.635 91.2341 395.651 94.3765 390.762 94.202C385.873 94.0274 382.071 90.5358 382.252 86.3459C382.433 82.5051 386.054 79.3627 390.4 79.1881C389.495 79.0135 388.589 78.839 387.684 78.839C379.535 78.4898 373.017 84.0763 372.655 90.885C372.292 98.2173 378.449 104.328 386.416 104.502C394.565 104.851 401.084 99.2648 401.446 91.9324C401.989 89.4883 401.084 87.0442 399.635 84.9492Z" fill="#3466AF"/>
<path d="M154.096 93.3291C154.096 97.519 150.112 100.836 145.404 100.836C140.515 100.836 136.712 97.519 136.712 93.3291C136.712 89.4883 140.153 86.1713 144.68 85.8221C143.774 85.6475 142.869 85.6476 141.964 85.6476C133.815 85.6476 127.478 91.4087 127.478 98.3919C127.478 105.724 133.815 111.485 141.783 111.485C149.931 111.485 156.269 105.724 156.269 98.3919C156.269 95.7732 155.363 93.5036 153.915 91.4087C153.915 91.9324 154.096 92.6307 154.096 93.3291Z" fill="url(#paint7_linear_36_296)"/>
<path d="M450.063 51.1054L446.441 65.4209L443.182 49.5342L398.637 40.1069L398.999 64.0243L405.699 65.4209L405.156 69.7854C405.156 69.7854 404.975 69.7854 404.975 69.6109C396.645 65.4209 386.324 64.8972 376.727 68.5634C373.468 69.7854 370.389 71.3566 367.673 73.277L360.973 32.4254H331.458L330.734 37.139H299.589L295.967 58.0886L293.432 54.9462C285.827 46.0426 274.962 41.1544 262.83 40.8052L289.267 27.188L270.797 0.651878L237.479 37.6628L243.274 44.4714C238.023 46.5663 233.496 49.3596 229.693 52.8512L201.083 28.41L191.124 46.7409L191.486 28.9338L146.76 42.7256L148.028 65.7701L155.633 63.8497L156.719 75.5466C148.028 71.7058 137.525 71.8804 127.928 75.8957C125.031 77.1178 122.315 78.5144 119.961 80.2602C121.591 73.1024 121.229 66.1193 118.331 59.8344C115.072 52.502 109.096 46.2172 102.035 42.3764C96.9644 39.0594 90.9889 37.139 84.6512 36.4407C69.2597 33.822 50.6089 36.4407 32.3202 43.9476C25.6204 46.7409 19.2827 49.8833 13.6694 53.3749L6.60742 57.7394L10.9532 64.7226L24.3529 86.7197L28.5176 93.3537L35.7607 89.8621L36.8471 89.3384L70.1651 160.916L73.4245 167.725L80.8486 165.455L98.7751 159.869L106.742 157.424L104.751 149.743L95.1536 114.478C97.8698 112.557 100.405 110.462 102.759 108.193C102.216 112.383 102.578 116.747 103.664 120.763C106.199 129.317 111.994 136.126 120.142 139.792C128.834 143.807 139.517 143.807 149.295 139.792C154.184 137.697 158.711 134.904 162.333 131.237L163.6 145.378L195.108 140.839V113.605L260.838 145.029V114.827C263.554 114.652 266.089 114.129 268.806 113.605C276.049 111.859 282.205 109.59 287.819 106.447L285.102 122.683L320.593 128.095L322.585 115.7L331.82 132.285L337.433 121.81L339.425 139.094L379.624 145.902L377.451 132.809C382.883 133.332 388.678 132.634 394.291 130.714C395.559 130.19 397.007 129.666 398.094 128.968L396.464 142.934L423.263 146.601L423.445 157.25L451.33 165.63L487.727 60.009L450.063 51.1054ZM292.889 66.8176L294.699 64.8972L292.527 78.1653L286.732 73.1024L292.889 66.8176ZM269.349 12.3487L279.127 25.093L251.241 38.3611L249.249 35.5678C249.249 35.7424 269.349 12.3487 269.349 12.3487ZM84.8323 110.812L95.8779 152.012L77.9514 157.599L41.0119 77.9907C39.02 79.0382 35.2174 80.784 31.9581 82.3552L18.5584 60.5327C23.8096 57.2157 29.7852 54.4224 35.9417 51.8037C53.3251 44.646 69.9841 42.551 83.2026 44.8205C87.9106 45.3443 92.7996 46.7409 97.1455 49.5342C103.121 52.8512 107.648 57.3903 110.364 63.326C116.883 77.6415 106.199 98.2419 84.8323 110.812ZM167.584 103.479C167.403 109.59 165.049 115.7 161.065 120.937C157.263 126 152.193 130.015 146.036 132.634C130.463 139.094 114.891 132.634 110.726 118.319C106.742 104.527 116.158 88.1163 131.188 81.8314C140.785 77.8161 150.563 78.8636 157.444 83.4026C161.79 86.1959 165.049 90.3858 166.498 95.6232C166.679 96.147 166.86 96.8453 166.86 97.369C167.584 99.464 167.584 101.559 167.584 103.479ZM252.509 132.634L187.14 101.21L187.321 134.205L170.481 136.475L169.214 122.858C174.465 114.303 176.276 104.003 173.56 94.7503C172.111 89.6875 169.395 85.1484 165.592 81.6569L163.238 53.8987L155.633 55.8191L155.271 48.8359L182.432 40.9798L184.062 67.8651L203.98 40.8052L223.718 58.7869L196.375 86.5451L222.088 96.3215C224.985 101.559 229.331 105.923 234.763 109.24C240.014 112.383 246.171 114.303 252.509 114.827V132.634ZM218.648 86.8942L209.594 83.5772L218.104 75.7211C217.561 79.3873 217.742 83.0535 218.648 86.8942ZM289.629 95.2741C283.292 100.337 276.23 103.479 266.814 105.749C264.822 106.273 262.649 106.622 260.838 106.622C245.809 108.018 233.315 101.384 228.607 90.735C228.063 89.5129 227.52 88.1163 227.158 86.7197C224.985 77.6415 226.796 69.6109 231.504 63.1514C232.771 61.231 234.401 59.6598 236.212 58.0886C240.558 54.2478 246.171 51.6291 252.509 50.0579C266.814 46.7409 279.308 50.9308 287.094 60.009L259.933 87.9417C261.744 88.2909 264.641 87.7671 266.814 87.2434C273.332 85.6722 276.954 82.3552 280.032 78.8636L290.897 88.2909L294.156 91.0842C292.708 92.6554 291.259 94.052 289.629 95.2741ZM347.393 132.46L341.417 94.7503L333.088 115.525L320.593 89.5129H320.412L315.523 119.715L294.699 116.224L297.597 99.464C298.321 98.7657 299.226 98.0673 299.951 97.1944L306.65 90.5604L300.132 84.7993L307.194 44.646H328.199L333.45 72.4041L339.425 40.2815H354.455L360.792 79.3873C352.825 88.1163 349.022 99.8131 351.557 110.637C353.549 119.017 358.981 125.651 366.587 129.666C367.311 130.015 368.216 130.365 368.941 130.714L369.665 135.777L347.393 132.46ZM399.361 120.064C397.007 121.636 394.472 123.032 391.756 123.905C386.324 125.826 381.073 126.349 376.184 125.302C372.924 124.603 369.846 123.381 367.13 121.636C362.965 118.668 359.887 114.478 358.438 109.066C356.809 102.606 358.257 95.6232 361.879 89.5129C363.689 86.5451 366.043 83.7518 368.76 81.3077C371.838 78.689 375.459 76.4195 379.262 75.0228C388.497 71.7058 397.551 72.9279 403.888 77.2924C406.242 78.8636 408.234 80.9585 409.683 83.4026C410.769 85.323 411.675 87.418 412.218 89.6875C414.21 97.5436 411.856 105.923 406.786 112.557C405.156 115.525 402.44 117.969 399.361 120.064ZM446.441 155.679L431.05 151.314L429.782 96.4961L421.996 138.744L405.156 136.126L406.423 123.905C417.469 115.002 423.263 100.861 420.004 87.9417C418.555 82.3552 415.658 77.2924 411.312 73.6262L412.761 59.3106L406.423 57.7394L406.604 50.0579L435.577 55.6445L445.355 100.162L455.314 60.1835L477.405 64.8972L446.441 155.679Z" fill="url(#paint8_linear_36_296)"/>
<path d="M467.176 149.544H467.901C468.806 149.544 469.53 149.195 469.53 148.322C469.53 147.798 468.987 147.1 467.901 147.1H467.176V149.544ZM467.176 153.21H466.09V146.576C466.633 146.401 467.176 146.401 468.082 146.401C469.168 146.401 469.892 146.576 470.255 146.925C470.617 147.274 470.979 147.623 470.979 148.322C470.979 149.195 470.436 149.718 469.711 149.893C470.255 150.067 470.798 150.591 470.798 151.464C470.979 152.512 471.16 152.861 471.16 153.035H470.074C469.892 152.861 469.711 152.162 469.53 151.29C469.349 150.417 468.987 150.067 468.082 150.067H467.176V153.21ZM468.444 144.655C465.728 144.655 463.555 146.925 463.555 149.718C463.555 152.512 465.728 154.781 468.625 154.781C471.341 154.781 473.514 152.512 473.514 149.718C473.333 146.925 471.16 144.655 468.444 144.655ZM468.444 143.783C471.884 143.783 474.419 146.401 474.419 149.718C474.419 153.035 471.703 155.654 468.263 155.654C464.822 155.654 462.106 153.035 462.106 149.718C462.287 146.401 465.003 143.783 468.444 143.783Z" fill="black"/>
</g>
<defs>
<linearGradient id="paint0_linear_36_296" x1="24.0831" y1="94.0693" x2="6.95126" y2="60.9571" gradientUnits="userSpaceOnUse">
<stop stop-color="#0070B6"/>
<stop offset="1" stop-color="#1D2C5E"/>
</linearGradient>
<linearGradient id="paint1_linear_36_296" x1="245.313" y1="27.4881" x2="267.44" y2="2.89666" gradientUnits="userSpaceOnUse">
<stop stop-color="#0070B6"/>
<stop offset="1" stop-color="#1D2C5E"/>
</linearGradient>
<linearGradient id="paint2_linear_36_296" x1="144.865" y1="67.1421" x2="142.31" y2="44.8822" gradientUnits="userSpaceOnUse">
<stop stop-color="#0070B6"/>
<stop offset="1" stop-color="#1D2C5E"/>
</linearGradient>
<linearGradient id="paint3_linear_36_296" x1="396.368" y1="62.8614" x2="395.35" y2="42.7843" gradientUnits="userSpaceOnUse">
<stop stop-color="#125D9E"/>
<stop offset="1" stop-color="#1D2C5E"/>
</linearGradient>
<linearGradient id="paint4_linear_36_296" x1="319.529" y1="33.9283" x2="296.611" y2="71.7428" gradientUnits="userSpaceOnUse">
<stop stop-color="#125D9E"/>
<stop offset="1" stop-color="#1D2C5E"/>
</linearGradient>
<linearGradient id="paint5_linear_36_296" x1="105.694" y1="93.3692" x2="121.233" y2="125.066" gradientUnits="userSpaceOnUse">
<stop stop-color="#105FA1"/>
<stop offset="1" stop-color="#1D2C5E"/>
</linearGradient>
<linearGradient id="paint6_linear_36_296" x1="43.5324" y1="82.7076" x2="61.4542" y2="125.799" gradientUnits="userSpaceOnUse">
<stop stop-color="#105FA1"/>
<stop offset="1" stop-color="#1D2C5E"/>
</linearGradient>
<linearGradient id="paint7_linear_36_296" x1="127.215" y1="98.5385" x2="156.059" y2="98.5385" gradientUnits="userSpaceOnUse">
<stop stop-color="#3C5AA6"/>
<stop offset="0.933" stop-color="#2B73B9"/>
<stop offset="1" stop-color="#2A75BB"/>
</linearGradient>
<linearGradient id="paint8_linear_36_296" x1="6.74685" y1="84.2249" x2="487.944" y2="84.2249" gradientUnits="userSpaceOnUse">
<stop stop-color="#3269B1"/>
<stop offset="0.933" stop-color="#2B73B9"/>
<stop offset="1" stop-color="#2A75BB"/>
</linearGradient>
<clipPath id="clip0_36_296">
<rect width="488" height="172.577" fill="white" transform="translate(0 0.581345)"/>
</clipPath>
</defs>
</svg>
