<svg width="364" height="364" viewBox="0 0 364 364" fill="none" xmlns="http://www.w3.org/2000/svg">
<g clip-path="url(#clip0_36_287)">
<path d="M181.965 241.718C153.215 241.718 129.235 221.359 123.54 194.313H27.8979C34.6601 272.964 100.628 334.674 180.968 334.674C261.312 334.674 327.35 272.964 334.039 194.313H240.389C234.697 221.433 210.714 241.718 181.965 241.718Z" fill="white"/>
<path d="M216.122 330.687C279.884 315.74 328.346 261.146 334.041 194.313H296.324C292.553 254.956 260.741 306.347 216.122 330.687Z" fill="#DFDFDF"/>
<path d="M217.19 182.001C217.119 182.001 217.119 182.001 217.19 182.001C217.119 177.66 216.335 173.531 214.913 169.689C209.931 156.307 197.05 146.84 181.965 146.84C166.879 146.84 153.999 156.378 149.016 169.689C147.554 173.629 146.807 177.799 146.811 182.001H146.882C146.882 186.343 147.665 190.471 149.087 194.313C154.07 207.696 166.95 217.163 182.036 217.163C197.121 217.163 210.002 207.625 214.984 194.313C216.406 190.54 217.19 186.343 217.19 182.001Z" fill="white"/>
<path d="M182.036 122.353C210.785 122.353 234.765 142.712 240.46 169.758H336.102C329.343 91.0362 263.373 29.326 182.961 29.326C102.547 29.326 36.6501 91.0362 29.8906 169.687H123.611C129.303 142.638 153.286 122.353 182.036 122.353Z" fill="#FF1C1C"/>
<path d="M296.324 169.687H336.031C330.197 101.713 280.097 46.3373 214.7 32.5972C260.102 56.5822 292.48 108.471 296.324 169.687Z" fill="#DF1818"/>
<path d="M182.961 29.326C263.375 29.326 329.343 91.0362 336.031 169.687H240.389C234.697 142.638 210.714 122.282 181.962 122.282C153.212 122.282 129.232 142.641 123.537 169.687H29.8879C36.6473 91.0335 102.617 29.326 182.958 29.326H182.961ZM214.913 169.687C216.335 173.529 217.119 177.657 217.119 181.999H217.19C217.19 186.34 216.406 190.469 214.984 194.311C210.004 207.693 197.121 217.16 182.035 217.16C166.95 217.16 154.07 207.622 149.087 194.311C147.625 190.371 146.878 186.201 146.881 181.999H146.81C146.81 177.657 147.594 173.529 149.016 169.687C153.996 156.304 166.879 146.837 181.965 146.837C197.05 146.837 209.93 156.375 214.913 169.687ZM180.968 334.745C100.554 334.745 34.5862 273.035 27.8977 194.384H123.54C129.232 221.43 153.215 241.789 181.965 241.789C210.714 241.789 234.697 221.43 240.392 194.384H334.112C327.353 272.964 261.383 334.745 180.971 334.745H180.968ZM181.965 0C81.4819 0 0 81.4957 0 182.001C0 282.504 81.4819 364.003 181.965 364.003C282.447 364.003 364 282.575 364 182.001C364 81.4274 282.518 0 181.965 0Z" fill="black"/>
</g>
<defs>
<clipPath id="clip0_36_287">
<rect width="364" height="364" fill="white"/>
</clipPath>
</defs>
</svg>
